# xmcd
#
# Track frame offsets:
#	150
#	15587
#	35546
#	52989
#	69125
#	87513
#	101724
#	117510
#	133970
#	150187
#
# Disc length: 2156 seconds
#
# Revision: 1
# Processed by: cddbd v1.5.1PL0 Copyright (c) Steve Scherf et al.
# Submitted via: audiograbber 1.83.01
#
DISCID=7b086a0a
DTITLE=John Michael MONTGOMERY - Pictures
DYEAR=1900
DGENRE=Country
TTITLE0=Country Thang
TTITLE1=Love Changes Eveyrthing
TTITLE2=Til Nothing comes Between Us
TTITLE3=Got You To Thank For That
TTITLE4=Pictures
TTITLE5=Love And Alcohol
TTITLE6=I Wanna Be There
TTITLE7=Believe In Me
TTITLE8=It Goes Like This (feat. SIXWIRE)
TTITLE9=Four-Wheel Drive
EXTD=
EXTT0=
EXTT1=
EXTT2=
EXTT3=
EXTT4=
EXTT5=
EXTT6=
EXTT7=
EXTT8=
EXTT9=
PLAYORDER=
